<?xml version="1.0" encoding="UTF-8"?>
<svg version="1.1" xmlns="http://www.w3.org/2000/svg" width="4096" height="4096">
<path d="M0 0 C2.04421051 -0.00134923 4.08842076 -0.00313457 6.13263056 -0.00531223 C11.72939756 -0.0100158 17.32614818 -0.00854918 22.92291596 -0.00603446 C29.019869 -0.00439529 35.11681863 -0.00854728 41.21377057 -0.01194364 C51.8930642 -0.01708924 62.57235266 -0.01855114 73.251647 -0.01748753 C84.70497606 -0.01636121 96.15830187 -0.01740363 107.61163044 -0.02105999 C108.33635424 -0.02128964 109.06107803 -0.0215193 109.80776315 -0.02175591 C112.75970991 -0.0226976 115.71165667 -0.02365329 118.66360341 -0.0246271 C149.4241009 -0.03475961 180.18459656 -0.03783265 210.94509552 -0.03841921 C214.25392539 -0.03848396 217.56275526 -0.0385519 220.87158513 -0.03862262 C221.69272831 -0.03863962 222.51387149 -0.03865663 223.35989779 -0.03867415 C241.57417542 -0.03908299 259.78845269 -0.04127415 278.00273013 -0.04377846 C285.50799058 -0.04480686 293.01325103 -0.0457969 300.51851147 -0.04679471 C301.34783746 -0.0469053 302.17716346 -0.04701589 303.03162054 -0.04712983 C350.54390998 -0.05345223 398.05619919 -0.05757913 445.56848907 -0.05712128 C447.34580326 -0.0571055 449.12311744 -0.05708976 450.90043162 -0.05707407 C458.92444799 -0.05700069 466.94846435 -0.05691252 474.97248072 -0.05682018 C478.55042302 -0.05677906 482.12836531 -0.05673891 485.70630761 -0.05669887 C487.49713052 -0.05667848 489.28795343 -0.05665746 491.07877634 -0.05663581 C547.69074801 -0.05595576 604.30271342 -0.06327027 660.91468334 -0.07717609 C675.17616207 -0.08067731 689.43764079 -0.08414685 703.69911957 -0.08744049 C704.57733586 -0.08764336 705.45555216 -0.08784624 706.36038107 -0.08805526 C733.44338598 -0.09427373 760.52639038 -0.0980365 787.60939598 -0.09929848 C788.46014888 -0.09933843 789.31090178 -0.09937838 790.18743508 -0.09941954 C808.86684281 -0.10027296 827.54625052 -0.10053396 846.22565827 -0.10024916 C852.91013836 -0.10015269 859.59461845 -0.10010064 866.27909855 -0.10007043 C867.94193392 -0.10006252 869.60476928 -0.10005232 871.26760465 -0.10003981 C897.72277328 -0.09986376 924.17793654 -0.10555063 950.63310364 -0.11419363 C977.29190926 -0.12285885 1003.95070746 -0.12502175 1030.6095139 -0.1184323 C1034.30099114 -0.11752013 1037.99246839 -0.11667682 1041.68394566 -0.11587429 C1042.40750907 -0.1157142 1043.13107249 -0.11555412 1043.87656208 -0.11538918 C1055.28967095 -0.11304487 1066.70276691 -0.11737353 1078.11587336 -0.12454548 C1089.36446074 -0.13147224 1100.61302944 -0.13098509 1111.86161803 -0.12335334 C1117.86781248 -0.11948155 1123.87396154 -0.11866804 1129.88015274 -0.12681069 C1176.26993173 -0.18564132 1176.26993173 -0.18564132 1199.37049389 2.12863445 C1200.61774679 2.25176591 1200.61774679 2.25176591 1201.89019672 2.37738488 C1206.39404711 2.82952958 1210.8823521 3.35345253 1215.37049389 3.94113445 C1216.02306164 4.02511486 1216.67562939 4.10909527 1217.34797192 4.19562054 C1308.49985053 15.97486641 1396.25507952 49.50273437 1508.37049389 131.12863445 C1508.97732006 131.63636395 1509.58414623 132.14409344 1510.20936108 132.66720867 C1522.45383036 142.95243071 1534.15254974 153.73294119 1545.37049389 165.12863445 C1548.27383832 168.04188791 1551.19041281 170.94142586 1554.11268139 173.8356657 C1555.49033784 175.20410265 1556.86794083 176.57259342 1558.24549389 177.94113445 C1558.92740795 178.61466961 1559.60932201 179.28820477 1560.31190014 179.98215008 C1564.87997868 184.52847586 1569.17658088 189.23699878 1573.37049389 194.12863445 C1574.32000759 195.2115496 1575.27047536 196.29362921 1576.22205639 197.3747282 C1583.43628943 205.64639697 1590.17422657 214.21865988 1596.7635603 222.99386883 C1598.33565958 225.08235806 1599.91973412 227.16119529 1601.50721264 229.23800945 C1608.16288346 237.97569434 1614.41894808 246.89816584 1620.37049389 256.12863445 C1620.83423412 256.84358074 1621.29797436 257.55852703 1621.77576733 258.29513836 C1669.78691915 332.49273338 1699.51625928 415.4900903 1710.37049389 503.12863445 C1710.4551289 503.80315655 1710.53976391 504.47767864 1710.62696362 505.1726408 C1715.91934623 547.89530192 1715.55324362 592.41562807 1710.37049389 635.12863445 C1710.16166576 636.91527508 1710.16166576 636.91527508 1709.94861889 638.73800945 C1700.17028969 720.22408614 1672.44188885 799.52345896 1599.37049389 912.12863445 C1598.47725548 913.31482541 1597.58402431 914.50102182 1596.69080639 915.6872282 C1591.26406833 922.80378683 1585.62196184 929.68886696 1579.7869978 936.4738493 C1578.37115067 938.12786719 1576.96904396 939.79266277 1575.56971264 941.4606657 C1561.39802165 958.28758214 1546.21487971 975.18938019 1529.37830639 989.40207195 C1527.2407322 991.2402194 1525.17356915 993.14676209 1523.10804272 995.06515789 C1517.05916932 1000.67863435 1510.83138422 1005.98968781 1504.37049389 1011.12863445 C1503.86357006 1011.53517254 1503.35664623 1011.94171062 1502.83436108 1012.36056805 C1430.46826072 1070.36409986 1345.71780271 1110.37766601 1179.37049389 1138.12863445 C1180.90528393 1138.26326092 1180.90528393 1138.26326092 1182.47107983 1138.40060711 C1256.71816836 1144.99918569 1328.65845539 1162.37458732 1395.60389233 1195.75705242 C1398.19503211 1197.04164678 1400.79851497 1198.29526544 1403.40955639 1199.5387907 C1440.71542259 1217.46615489 1475.64207764 1241.69537044 1507.37049389 1268.12863445 C1507.94493237 1268.60397625 1508.51937084 1269.07931805 1509.11121655 1269.56906414 C1516.88360711 1276.00589179 1524.36183914 1282.71206449 1531.7323103 1289.60373211 C1533.38885176 1291.14572286 1535.05552137 1292.67593896 1536.72596264 1294.2028532 C1545.32764238 1302.07036564 1553.81712011 1310.00605569 1561.40174389 1318.87863445 C1563.44811275 1321.21734172 1565.55413778 1323.48899196 1567.67542553 1325.75949383 C1572.63861531 1331.07537802 1577.42319209 1336.46765185 1581.97596264 1342.14425945 C1583.75290074 1344.35890988 1585.54545191 1346.55355826 1587.35877514 1348.73800945 C1649.47059834 1423.8063099 1690.52698144 1517.05692486 1709.62049389 1635.00363445 C1709.77163647 1636.12842205 1709.92277905 1637.25320965 1710.0785017 1638.41208172 C1712.91261786 1661.07061651 1713.75122153 1683.74891286 1713.68299389 1706.56613445 C1713.68083874 1707.87457317 1713.67868359 1709.18301189 1713.67646313 1710.53110027 C1713.62969234 1731.53903841 1713.01883714 1752.28301128 1710.37049389 1773.12863445 C1710.27339123 1773.90392498 1710.17628857 1774.67921551 1710.0762434 1775.47799969 C1701.80022248 1841.02316639 1683.05424346 1903.99530815 1653.37049389 1963.12863445 C1652.57941235 1964.70668865 1652.57941235 1964.70668865 1651.77234936 1966.31662273 C1632.00096556 2005.53254148 1607.40807689 2042.12482763 1578.80604076 2075.4504118 C1577.29381165 2077.21827964 1575.79245667 2078.99498762 1574.29236889 2080.7731657 C1569.43199391 2086.51696828 1564.55578813 2092.11313452 1559.14783764 2097.35519695 C1557.37181958 2099.12731168 1555.74614586 2100.96839592 1554.12049389 2102.87863445 C1547.52426754 2110.53146457 1540.24369455 2117.68592227 1532.55018139 2124.23019695 C1530.23310567 2126.24829516 1527.98887992 2128.33154051 1525.74402905 2130.42917156 C1520.42708686 2135.3942686 1515.03308219 2140.18004485 1509.35486889 2144.7341032 C1507.14021846 2146.51104131 1504.94557008 2148.30359247 1502.76111889 2150.1169157 C1479.57504236 2169.30117161 1454.40996732 2186.07733167 1428.37049389 2201.12863445 C1427.66924389 2201.53710613 1426.96799389 2201.94557781 1426.24549389 2202.36642742 C1362.28672245 2239.44858444 1291.06082543 2262.58462109 1217.87049389 2272.31613445 C1216.1487495 2272.54852825 1216.1487495 2272.54852825 1214.3922224 2272.78561687 C1191.78972496 2275.638691 1169.16913942 2276.51004038 1146.40299129 2276.44669247 C1144.33247582 2276.44103049 1142.26196862 2276.43822366 1140.19144726 2276.43561077 C1119.11760761 2276.39699513 1098.28911247 2275.83473374 1077.37049389 2273.12863445 C1076.67897228 2273.04142132 1075.98745068 2272.95420818 1075.27497387 2272.86435223 C1020.12564621 2265.90723026 966.23800471 2251.63088443 915.37049389 2229.12863445 C914.2008308 2228.61188152 913.03116772 2228.09512859 911.8260603 2227.56271648 C856.33276091 2202.8406913 804.85343421 2169.15453657 760.28455639 2127.82394695 C758.37380787 2126.05663264 756.45223027 2124.3009393 754.51893139 2122.55832195 C748.54738313 2117.16622312 742.75834833 2111.61976699 737.05799389 2105.94113445 C736.40024975 2105.2879826 735.74250561 2104.63483074 735.06482983 2103.96188641 C731.21517027 2100.10006901 727.55670621 2096.12440703 723.9937849 2091.99704266 C721.71975615 2089.37963522 719.35878292 2086.8532991 716.99549389 2084.31613445 C711.88125218 2078.77219823 707.06657074 2073.03273107 702.37049389 2067.12863445 C701.9639558 2066.62171062 701.55741772 2066.1147868 701.1385603 2065.59250164 C678.6066877 2037.48139009 658.69791048 2007.62854164 641.79822826 1975.80343914 C640.43960413 1973.2581098 639.05690591 1970.72749862 637.66736889 1968.19894695 C603.17318906 1904.79145551 583.31767753 1832.14416474 576.84640026 1760.40446758 C576.75706628 1759.41589417 576.6677323 1758.42732077 576.57569122 1757.40879059 C576.5079761 1756.65633906 576.44026098 1755.90388754 576.37049389 1755.12863445 C576.37009371 1756.09823511 576.36969352 1757.06783577 576.36928121 1758.06681826 C576.35555444 1791.27020387 576.34116433 1824.47358918 576.32630444 1857.6769743 C576.3260051 1858.34595718 576.32570576 1859.01494006 576.32539735 1859.70419516 C576.29328539 1931.42914411 576.25680141 2003.15408926 576.21151257 2074.87903118 C576.21050694 2076.47341635 576.20950132 2078.06780152 576.2084957 2079.6621867 C576.18737117 2113.13355787 576.16563362 2146.60492862 576.14318851 2180.07629894 C576.13191315 2196.89170961 576.12075551 2213.70712037 576.1097092 2230.5225312 C576.10804229 2233.05896906 576.10637202 2235.59540693 576.10470161 2238.13184479 C576.07902914 2277.1591951 576.05587119 2316.1865449 576.04004955 2355.21390057 C576.03970969 2356.05212491 576.03936983 2356.89034925 576.03901966 2357.75397434 C576.03355592 2371.26741874 576.02830447 2384.78086322 576.02308122 2398.29430772 C576.00802141 2437.24826025 575.99137482 2476.20220924 575.96437073 2515.15615559 C575.9638154 2515.95832888 575.96326007 2516.76050218 575.96268791 2517.58698376 C575.9504648 2535.20265012 575.93743548 2552.81831579 575.92364432 2570.43398099 C575.91810821 2577.52345876 575.912688 2584.61293662 575.90730762 2591.70241451 C575.90671599 2592.47829508 575.90612436 2593.25417565 575.90551481 2594.05356776 C575.88655474 2618.99376917 575.87700399 2643.93396314 575.87245794 2668.87417101 C575.86782963 2694.02692919 575.85383118 2719.17966372 575.82706755 2744.33240861 C575.82335928 2747.8196564 575.81975686 2751.30690429 575.81621838 2754.79415226 C575.81552099 2755.47766609 575.8148236 2756.16117992 575.81410508 2756.86540629 C575.80275085 2768.27739812 575.80311639 2779.68935778 575.8067246 2791.10135488 C575.80904994 2801.06849312 575.80040992 2811.03558444 575.78316978 2821.0027079 C575.77367575 2826.66761776 575.76864801 2832.33242393 575.77709826 2837.99733786 C575.8933961 2924.10741587 559.24399171 3006.69568648 523.37049389 3085.12863445 C522.98683666 3085.97570965 522.60317944 3086.82278484 522.20789623 3087.69552898 C498.00872864 3140.97212601 463.51781714 3189.8189633 423.78113842 3232.60470867 C422.30288621 3234.20167134 420.83394752 3235.80681703 419.36658764 3237.4137907 C411.47774057 3246.03985431 403.51750542 3254.5543746 394.62049389 3262.15988445 C392.28178662 3264.20625331 390.01013638 3266.31227835 387.73963451 3268.43356609 C382.42375033 3273.39675588 377.03147649 3278.18133265 371.35486889 3282.7341032 C369.14021846 3284.51104131 366.94557008 3286.30359247 364.76111889 3288.1169157 C343.05569043 3306.07476202 319.59735696 3321.7845966 295.37049389 3336.12863445 C294.59898998 3336.58915203 293.82748608 3337.04966961 293.03260326 3337.52414227 C222.86693478 3379.24040564 143.38198362 3403.71513429 62.37049389 3412.12863445 C60.71171215 3412.30652508 60.71171215 3412.30652508 59.01941967 3412.48800945 C23.73743311 3416.09730995 -13.39066041 3416.02699466 -48.62950611 3412.12863445 C-49.8497649 3411.9997282 -51.07002369 3411.87082195 -52.32726002 3411.73800945 C-132.23244954 3403.1286961 -208.99884888 3378.44064286 -352.62950611 3287.12863445 C-353.71910009 3286.21297258 -354.80895872 3285.29762555 -355.89903736 3284.3825407 C-361.86616283 3279.3631201 -367.79751007 3274.30482371 -373.62950611 3269.12863445 C-374.39520924 3268.45574383 -375.16091236 3267.7828532 -375.94981861 3267.08957195 C-382.43311829 3261.33792992 -388.54596966 3255.2962751 -394.62950611 3249.12863445 C-397.53294377 3246.21547004 -400.44944215 3243.31586445 -403.37169361 3240.4216032 C-404.74935006 3239.05316625 -406.12695305 3237.68467548 -407.50450611 3236.31613445 C-408.18642017 3235.6425993 -408.86833424 3234.96906414 -409.57091236 3234.27511883 C-414.1389909 3229.72879304 -418.4355931 3225.02027012 -422.62950611 3220.12863445 C-423.57901981 3219.04571931 -424.52948758 3217.96363969 -425.48106861 3216.8825407 C-432.69530165 3208.61087194 -439.43323879 3200.03860902 -446.02257252 3191.26340008 C-447.5946718 3189.17491085 -449.17874634 3187.09607362 -450.76622486 3185.01925945 C-457.42189568 3176.28157456 -463.6779603 3167.35910307 -469.62950611 3158.12863445 C-470.32511646 3157.05621502 -470.32511646 3157.05621502 -471.03477955 3155.96213055 C-483.74029886 3136.32671377 -495.08264313 3115.99787813 -505.62950611 3095.12863445 C-506.02202564 3094.35439129 -506.41454517 3093.58014812 -506.81895924 3092.78244305 C-535.21197725 3036.25930533 -551.95802746 2973.72411276 -559.62950611 2911.12863445 C-559.75485737 2910.1248576 -559.75485737 2910.1248576 -559.88274097 2909.10080242 C-565.07483907 2867.11286524 -565.00842184 2823.16584078 -559.87950611 2781.17538738 C-559.62198743 2779.0670789 -559.37364329 2776.95780341 -559.12559986 2774.84836102 C-548.51823882 2686.06227247 -516.13800329 2600.16005071 -445.62950611 2498.12863445 C-445.17414478 2497.53582684 -444.71878345 2496.94301922 -444.2496233 2496.33224773 C-434.83363228 2484.0767782 -424.82916809 2472.36935023 -414.32091236 2461.0387907 C-412.56619172 2459.14145126 -410.82334596 2457.23303897 -409.09434986 2455.3122282 C-403.5361222 2449.15039211 -397.79955175 2443.19466804 -391.94200611 2437.31613445 C-391.24123951 2436.61077557 -390.54047291 2435.90541668 -389.81847095 2435.17868328 C-385.82170802 2431.19367277 -381.72324593 2427.3887289 -377.44908619 2423.70309734 C-375.02385651 2421.60457243 -372.67262339 2419.42974124 -370.31700611 2417.25363445 C-364.91453091 2412.33286143 -359.3271303 2407.70162956 -353.62950611 2403.12863445 C-352.49751825 2402.20473996 -351.36603124 2401.28023156 -350.23497486 2400.35519695 C-278.03375612 2341.57812903 -189.57379753 2301.26455301 -28.62950611 2276.12863445 C-29.65269947 2276.03888348 -30.67589283 2275.9491325 -31.73009205 2275.8566618 C-76.72069892 2271.85798841 -120.36999171 2264.43205778 -163.62950611 2251.12863445 C-164.7264983 2250.79138348 -165.82349049 2250.4541325 -166.95372486 2250.1066618 C-196.26874968 2240.96956752 -224.24288889 2228.93832816 -251.62950611 2215.12863445 C-252.6749358 2214.60382488 -253.72036549 2214.07901531 -254.79747486 2213.53830242 C-293.30660063 2194.11732686 -329.2348437 2169.6434128 -361.95128345 2141.56418133 C-363.7191513 2140.05195221 -365.49585928 2138.55059723 -367.27403736 2137.05050945 C-373.01783994 2132.19013448 -378.61400617 2127.31392869 -383.85606861 2121.9059782 C-385.62818334 2120.12996014 -387.46926758 2118.50428643 -389.37950611 2116.87863445 C-397.03233622 2110.2824081 -404.18679393 2103.00183511 -410.73106861 2095.30832195 C-412.74916682 2092.99124624 -414.83241217 2090.74702049 -416.93004322 2088.50216961 C-421.89514026 2083.18522743 -426.6809165 2077.79122276 -431.23497486 2072.11300945 C-433.01191296 2069.89835903 -434.80446413 2067.70371065 -436.61778736 2065.51925945 C-461.15025467 2035.86933884 -481.7072614 2003.12999391 -499.62950611 1969.12863445 C-500.36403004 1967.73765545 -500.36403004 1967.73765545 -501.11339283 1966.31857586 C-531.59093746 1908.14696166 -550.24193153 1844.21230845 -558.87950611 1779.25363445 C-559.03064869 1778.12884686 -559.18179127 1777.00405926 -559.33751392 1775.84518719 C-562.17163008 1753.1866524 -563.01023376 1730.50835605 -562.94200611 1707.69113445 C-562.93985096 1706.38269573 -562.93769581 1705.07425701 -562.93547535 1703.72616863 C-562.88870456 1682.7182305 -562.27784937 1661.97425763 -559.62950611 1641.12863445 C-559.48385212 1639.96569866 -559.48385212 1639.96569866 -559.33525562 1638.77926922 C-551.0592347 1573.23410251 -532.31325568 1510.26196075 -502.62950611 1451.12863445 C-502.10211842 1450.07659832 -501.57473072 1449.02456219 -501.03136158 1447.94064617 C-481.25997778 1408.72472743 -456.66708911 1372.13244127 -428.06505299 1338.80685711 C-426.55282387 1337.03898926 -425.05146889 1335.26228128 -423.55138111 1333.4841032 C-418.69100613 1327.74030062 -413.81480035 1322.14413439 -408.40684986 1316.90207195 C-406.6308318 1315.12995723 -405.00515808 1313.28887298 -403.37950611 1311.37863445 C-396.78327976 1303.72580434 -389.50270677 1296.57134663 -381.80919361 1290.02707195 C-379.49211789 1288.00897375 -377.24789214 1285.92572839 -375.00304127 1283.82809734 C-369.68609908 1278.86300031 -364.29209441 1274.07722406 -358.61388111 1269.5231657 C-356.39923069 1267.7462276 -354.20458231 1265.95367643 -352.02013111 1264.1403532 C-328.83405458 1244.9560973 -303.66897955 1228.17993723 -277.62950611 1213.12863445 C-276.92825611 1212.72016277 -276.22700611 1212.31169109 -275.50450611 1211.89084148 C-242.89340394 1192.98350502 -208.45997643 1177.77487227 -172.62950611 1166.12863445 C-171.50963306 1165.75786785 -170.38976002 1165.38710125 -169.23595142 1165.0050993 C-123.58247658 1149.94343139 -76.47447927 1141.98056026 -28.62950611 1138.12863445 C-29.45112232 1138.06393963 -30.27273853 1137.9992448 -31.1192522 1137.93258953 C-96.44161619 1132.67484778 -160.55349814 1118.85056655 -220.62950611 1092.12863445 C-221.70555103 1091.65232586 -222.78159595 1091.17601727 -223.8902483 1090.68527508 C-265.64575156 1072.07645177 -304.35272368 1048.98744123 -340.62950611 1021.12863445 C-341.2295647 1020.66892254 -341.8296233 1020.20921062 -342.44786549 1019.73556805 C-354.69349341 1010.32432892 -366.39231406 1000.32435987 -377.71544361 989.82394695 C-379.62619213 988.05663264 -381.54776973 986.3009393 -383.48106861 984.55832195 C-389.45261687 979.16622312 -395.24165167 973.61976699 -400.94200611 967.94113445 C-401.92862232 966.96140667 -401.92862232 966.96140667 -402.93517017 965.96188641 C-406.78867325 962.09621335 -410.44887881 958.11562142 -414.01500416 953.98385906 C-416.23830992 951.42905784 -418.56075085 948.97175739 -420.87950611 946.50363445 C-425.91985818 941.06969663 -430.49827858 935.34477575 -435.02403736 929.48019695 C-437.26536534 926.57734605 -439.58712726 923.75306003 -441.94200611 920.94113445 C-460.44281568 898.34722542 -476.26707532 873.51614953 -490.62950611 848.12863445 C-491.18170826 847.15587566 -491.73391041 846.18311687 -492.30284595 845.18088055 C-507.63793845 817.96753743 -520.16915233 789.54525135 -530.62950611 760.12863445 C-531.0233147 759.02954754 -531.4171233 757.93046062 -531.82286549 756.79806805 C-544.72984216 720.46071285 -553.34235923 682.82418816 -558.44200611 644.62863445 C-558.59119495 643.52666729 -558.59119495 643.52666729 -558.74339771 642.40243816 C-561.96780648 618.23501165 -563.01313959 594.05620111 -562.94200611 569.69113445 C-562.93927189 567.7314674 -562.93927189 567.7314674 -562.93648243 565.73221111 C-562.89590768 544.72560156 -562.23307551 523.97727016 -559.62950611 503.12863445 C-559.54464954 502.43624676 -559.45979298 501.74385906 -559.372365 501.03048992 C-549.66858339 422.31878474 -524.33611023 345.57008909 -465.62950611 250.12863445 C-464.99093678 249.20268475 -464.99093678 249.20268475 -464.33946705 248.25802898 C-454.0672621 233.40651933 -443.25677103 218.95084224 -431.62950611 205.12863445 C-431.18284595 204.5970573 -430.7361858 204.06548016 -430.27599049 203.51779461 C-419.90749279 191.20958811 -409.09896041 179.41918912 -397.62950611 168.12863445 C-394.71625265 165.22529002 -391.81671471 162.30871553 -388.92247486 159.38644695 C-387.55403791 158.0087905 -386.18554714 156.63118751 -384.81700611 155.25363445 C-384.14347095 154.57172039 -383.4699358 153.88980633 -382.77599049 153.1872282 C-378.2296647 148.61914966 -373.52114178 144.32254747 -368.62950611 140.12863445 C-367.54659097 139.17912075 -366.46451135 138.22865298 -365.38341236 137.27707195 C-357.14525586 130.09127682 -348.62165439 123.35818586 -339.87120533 116.80832195 C-337.6192038 115.12091501 -335.37641274 113.42173004 -333.13341236 111.72238445 C-259.57692561 56.3751173 -172.25463204 20.47194321 -37.62950611 1.12863445 C-36.47863203 1.04635789 -35.32775794 0.96408133 -34.14200889 0.87931154 C-22.75405454 0.11175824 -11.41045378 -0.01313191 0 0 Z M575.37049389 1139.12863445 C575.37049389 1315.34863445 575.37049389 1491.56863445 575.37049389 1673.12863445 C575.70049389 1673.12863445 576.03049389 1673.12863445 576.37049389 1673.12863445 C576.46753613 1671.85077068 576.46753613 1671.85077068 576.56653881 1670.54709148 C583.25065434 1584.51994281 606.68459799 1503.15051677 664.37049389 1401.12863445 C664.8105476 1400.44849285 665.25060131 1399.76835125 665.70398998 1399.0675993 C668.53244629 1394.71253663 671.4283616 1390.40758897 674.37049389 1386.12863445 C674.82214916 1385.46976238 675.27380444 1384.81089031 675.73914623 1384.13205242 C686.01885558 1369.19352382 697.0252372 1354.84072256 708.84705639 1341.08957195 C711.30503207 1338.20544569 713.68594372 1335.27107749 716.05799389 1332.31613445 C719.25217684 1328.38746024 722.58103657 1324.75774173 726.25330639 1321.2731657 C728.11265236 1319.38980604 729.82854965 1317.46116225 731.55408764 1315.45675945 C735.60708844 1310.78987995 739.92769958 1306.42425005 744.30799389 1302.06613445 C745.06789623 1301.30236492 745.82779858 1300.53859539 746.61072826 1299.75168133 C750.7951214 1295.57443489 755.06529207 1291.56533122 759.546031 1287.70798016 C762.15198078 1285.45214058 764.66089239 1283.10289263 767.18299389 1280.75363445 C772.72693011 1275.63939275 778.46639727 1270.8247113 784.37049389 1266.12863445 C784.87741772 1265.72209637 785.38434155 1265.31555828 785.9066267 1264.89670086 C800.86108089 1252.91027137 816.26164322 1241.5169216 832.37049389 1231.12863445 C833.4204353 1230.44535076 833.4204353 1230.44535076 834.49158764 1229.74826336 C847.47446853 1221.31452461 860.79599105 1213.56844027 874.37049389 1206.12863445 C875.27718822 1205.62863934 876.18388256 1205.12864422 877.11805248 1204.61349773 C901.47473092 1191.26200565 927.17689895 1180.32658148 953.37049389 1171.12863445 C954.41415112 1170.75931805 955.45780834 1170.39000164 956.53309155 1170.00949383 C1002.12608755 1153.99088622 1049.32295246 1144.66078243 1097.37049389 1140.12863445 C1097.37049389 1139.79863445 1097.37049389 1139.46863445 1097.37049389 1139.12863445 C925.11049389 1139.12863445 752.85049389 1139.12863445 575.37049389 1139.12863445 Z " fill="#A258FE" transform="translate(1472.629506111145,340.8713655471802)"/>
<path d="M0 0 C2.04421051 -0.00134923 4.08842076 -0.00313457 6.13263056 -0.00531223 C11.72939756 -0.0100158 17.32614818 -0.00854918 22.92291596 -0.00603446 C29.019869 -0.00439529 35.11681863 -0.00854728 41.21377057 -0.01194364 C51.8930642 -0.01708924 62.57235266 -0.01855114 73.251647 -0.01748753 C84.70497606 -0.01636121 96.15830187 -0.01740363 107.61163044 -0.02105999 C108.33635424 -0.02128964 109.06107803 -0.0215193 109.80776315 -0.02175591 C112.75970991 -0.0226976 115.71165667 -0.02365329 118.66360341 -0.0246271 C149.4241009 -0.03475961 180.18459656 -0.03783265 210.94509552 -0.03841921 C214.25392539 -0.03848396 217.56275526 -0.0385519 220.87158513 -0.03862262 C221.69272831 -0.03863962 222.51387149 -0.03865663 223.35989779 -0.03867415 C241.57417542 -0.03908299 259.78845269 -0.04127415 278.00273013 -0.04377846 C285.50799058 -0.04480686 293.01325103 -0.0457969 300.51851147 -0.04679471 C301.34783746 -0.0469053 302.17716346 -0.04701589 303.03162054 -0.04712983 C350.54390998 -0.05345223 398.05619919 -0.05757913 445.56848907 -0.05712128 C447.34580326 -0.0571055 449.12311744 -0.05708976 450.90043162 -0.05707407 C458.92444799 -0.05700069 466.94846435 -0.05691252 474.97248072 -0.05682018 C478.55042302 -0.05677906 482.12836531 -0.05673891 485.70630761 -0.05669887 C487.49713052 -0.05667848 489.28795343 -0.05665746 491.07877634 -0.05663581 C547.69074801 -0.05595576 604.30271342 -0.06327027 660.91468334 -0.07717609 C675.17616207 -0.08067731 689.43764079 -0.08414685 703.69911957 -0.08744049 C704.57733586 -0.08764336 705.45555216 -0.08784624 706.36038107 -0.08805526 C733.44338598 -0.09427373 760.52639038 -0.0980365 787.60939598 -0.09929848 C788.46014888 -0.09933843 789.31090178 -0.09937838 790.18743508 -0.09941954 C808.86684281 -0.10027296 827.54625052 -0.10053396 846.22565827 -0.10024916 C852.91013836 -0.10015269 859.59461845 -0.10010064 866.27909855 -0.10007043 C867.94193392 -0.10006252 869.60476928 -0.10005232 871.26760465 -0.10003981 C897.72277328 -0.09986376 924.17793654 -0.10555063 950.63310364 -0.11419363 C977.29190926 -0.12285885 1003.95070746 -0.12502175 1030.6095139 -0.1184323 C1034.30099114 -0.11752013 1037.99246839 -0.11667682 1041.68394566 -0.11587429 C1042.40750907 -0.1157142 1043.13107249 -0.11555412 1043.87656208 -0.11538918 C1055.28967095 -0.11304487 1066.70276691 -0.11737353 1078.11587336 -0.12454548 C1089.36446074 -0.13147224 1100.61302944 -0.13098509 1111.86161803 -0.12335334 C1117.86781248 -0.11948155 1123.87396154 -0.11866804 1129.88015274 -0.12681069 C1176.26993173 -0.18564132 1176.26993173 -0.18564132 1199.37049389 2.12863445 C1200.61774679 2.25176591 1200.61774679 2.25176591 1201.89019672 2.37738488 C1206.39404711 2.82952958 1210.8823521 3.35345253 1215.37049389 3.94113445 C1216.02306164 4.02511486 1216.67562939 4.10909527 1217.34797192 4.19562054 C1308.49985053 15.97486641 1396.25507952 49.50273437 1508.37049389 131.12863445 C1508.97732006 131.63636395 1509.58414623 132.14409344 1510.20936108 132.66720867 C1522.45383036 142.95243071 1534.15254974 153.73294119 1545.37049389 165.12863445 C1548.27383832 168.04188791 1551.19041281 170.94142586 1554.11268139 173.8356657 C1555.49033784 175.20410265 1556.86794083 176.57259342 1558.24549389 177.94113445 C1558.92740795 178.61466961 1559.60932201 179.28820477 1560.31190014 179.98215008 C1564.87997868 184.52847586 1569.17658088 189.23699878 1573.37049389 194.12863445 C1574.32000759 195.2115496 1575.27047536 196.29362921 1576.22205639 197.3747282 C1583.43628943 205.64639697 1590.17422657 214.21865988 1596.7635603 222.99386883 C1598.33565958 225.08235806 1599.91973412 227.16119529 1601.50721264 229.23800945 C1608.16288346 237.97569434 1614.41894808 246.89816584 1620.37049389 256.12863445 C1620.83423412 256.84358074 1621.29797436 257.55852703 1621.77576733 258.29513836 C1669.78691915 332.49273338 1699.51625928 415.4900903 1710.37049389 503.12863445 C1710.4551289 503.80315655 1710.53976391 504.47767864 1710.62696362 505.1726408 C1715.91934623 547.89530192 1715.55324362 592.41562807 1710.37049389 635.12863445 C1710.16166576 636.91527508 1710.16166576 636.91527508 1709.94861889 638.73800945 C1700.17028969 720.22408614 1672.44188885 799.52345896 1599.37049389 912.12863445 C1598.47725548 913.31482541 1597.58402431 914.50102182 1596.69080639 915.6872282 C1591.26406833 922.80378683 1585.62196184 929.68886696 1579.7869978 936.4738493 C1578.37115067 938.12786719 1576.96904396 939.79266277 1575.56971264 941.4606657 C1561.39802165 958.28758214 1546.21487971 975.18938019 1529.37830639 989.40207195 C1527.2407322 991.2402194 1525.17356915 993.14676209 1523.10804272 995.06515789 C1517.05916932 1000.67863435 1510.83138422 1005.98968781 1504.37049389 1011.12863445 C1503.86357006 1011.53517254 1503.35664623 1011.94171062 1502.83436108 1012.36056805 C1430.46826072 1070.36409986 1345.71780271 1110.37766601 1213.37049389 1135.12863445 C1212.15232983 1135.2884782 1210.93416576 1135.44832195 1209.67908764 1135.61300945 C1191.05428546 1137.94362116 1172.39463745 1138.4116305 1153.64415768 1138.67027465 C1151.55883582 1138.69917098 1149.47353913 1138.72956013 1147.38824058 1138.76008868 C1105.43750287 1139.36386269 1063.48099979 1139.27510748 1021.52696835 1139.26376287 C1012.75994343 1139.26150069 1003.99292093 1139.26162812 995.22589588 1139.26314259 C993.94258898 1139.2633632 992.65928208 1139.26358382 991.33708709 1139.26381112 C988.71635155 1139.26426982 986.09561602 1139.26473216 983.47488048 1139.26519804 C953.42922089 1139.27018192 923.38356637 1139.26476999 893.33790771 1139.25726569 C882.37926325 1139.2545315 871.42061881 1139.25237163 860.46197414 1139.25067806 C859.37372433 1139.25050915 859.37372433 1139.25050915 858.26348967 1139.25033682 C855.32494449 1139.24988111 852.3863993 1139.24942633 849.44785412 1139.2489727 C771.59488797 1139.23688063 693.74193891 1139.20386434 590.68551391 1139.13849724 C579.53890764 1139.13128107 568.39230126 1139.12426127 557.24569479 1139.11735041 C472.41153093 1139.06469626 387.57740391 1138.99617683 302.74328899 1138.8897047 C296.78799607 1138.88224462 290.83270312 1138.87479481 284.87741017 1138.86735284 C283.1819117 1138.86523147 281.48641323 1138.86310565 279.79091477 1138.86097538 C253.63696385 1138.82811996 227.4830145 1138.80304928 201.32905102 1138.78274822 C172.45697755 1138.76033545 143.58493814 1138.72720965 114.7128939 1138.68013352 C111.68639885 1138.67523932 108.65990373 1138.6703896 105.63340855 1138.66557407 C104.89041171 1138.66438715 104.14741487 1138.66320022 103.38190298 1138.66197733 C91.65225316 1138.64349589 79.9226177 1138.63477541 68.19295511 1138.63013797 C56.59360527 1138.62532989 44.99431868 1138.60941369 33.39499688 1138.58295625 C27.19478788 1138.56910709 20.99466878 1138.55972793 14.79444337 1138.56362844 C-10.85613513 1138.57652767 -36.13733213 1138.18109224 -61.62950611 1135.12863445 C-62.5541391 1135.02162413 -63.47877209 1134.91461381 -64.43142426 1134.80436075 C-69.095077 1134.26289049 -73.73699154 1133.64694107 -78.37950611 1132.94113445 C-79.05310169 1132.84014446 -79.72669727 1132.73915447 -80.42070484 1132.63510418 C-128.53572335 1125.35761966 -176.1518329 1111.91239511 -220.62950611 1092.12863445 C-221.70555103 1091.65232586 -222.78159595 1091.17601727 -223.8902483 1090.68527508 C-265.64575156 1072.07645177 -304.35272368 1048.98744123 -340.62950611 1021.12863445 C-341.2295647 1020.66892254 -341.8296233 1020.20921062 -342.44786549 1019.73556805 C-354.69349341 1010.32432892 -366.39231406 1000.32435987 -377.71544361 989.82394695 C-379.62619213 988.05663264 -381.54776973 986.3009393 -383.48106861 984.55832195 C-389.45261687 979.16622312 -395.24165167 973.61976699 -400.94200611 967.94113445 C-401.92862232 966.96140667 -401.92862232 966.96140667 -402.93517017 965.96188641 C-406.78867325 962.09621335 -410.44887881 958.11562142 -414.01500416 953.98385906 C-416.23830992 951.42905784 -418.56075085 948.97175739 -420.87950611 946.50363445 C-425.91985818 941.06969663 -430.49827858 935.34477575 -435.02403736 929.48019695 C-437.26536534 926.57734605 -439.58712726 923.75306003 -441.94200611 920.94113445 C-460.44281568 898.34722542 -476.26707532 873.51614953 -490.62950611 848.12863445 C-491.18170826 847.15587566 -491.73391041 846.18311687 -492.30284595 845.18088055 C-507.63793845 817.96753743 -520.16915233 789.54525135 -530.62950611 760.12863445 C-531.0233147 759.02954754 -531.4171233 757.93046062 -531.82286549 756.79806805 C-544.72984216 720.46071285 -553.34235923 682.82418816 -558.44200611 644.62863445 C-558.59119495 643.52666729 -558.59119495 643.52666729 -558.74339771 642.40243816 C-561.96780648 618.23501165 -563.01313959 594.05620111 -562.94200611 569.69113445 C-562.93927189 567.7314674 -562.93927189 567.7314674 -562.93648243 565.73221111 C-562.89590768 544.72560156 -562.23307551 523.97727016 -559.62950611 503.12863445 C-559.54464954 502.43624676 -559.45979298 501.74385906 -559.372365 501.03048992 C-549.66858339 422.31878474 -524.33611023 345.57008909 -465.62950611 250.12863445 C-464.99093678 249.20268475 -464.99093678 249.20268475 -464.33946705 248.25802898 C-454.0672621 233.40651933 -443.25677103 218.95084224 -431.62950611 205.12863445 C-431.18284595 204.5970573 -430.7361858 204.06548016 -430.27599049 203.51779461 C-419.90749279 191.20958811 -409.09896041 179.41918912 -397.62950611 168.12863445 C-394.71625265 165.22529002 -391.81671471 162.30871553 -388.92247486 159.38644695 C-387.55403791 158.0087905 -386.18554714 156.63118751 -384.81700611 155.25363445 C-384.14347095 154.57172039 -383.4699358 153.88980633 -382.77599049 153.1872282 C-378.2296647 148.61914966 -373.52114178 144.32254747 -368.62950611 140.12863445 C-367.54659097 139.17912075 -366.46451135 138.22865298 -365.38341236 137.27707195 C-357.14525586 130.09127682 -348.62165439 123.35818586 -339.87120533 116.80832195 C-337.6192038 115.12091501 -335.37641274 113.42173004 -333.13341236 111.72238445 C-259.57692561 56.3751173 -172.25463204 20.47194321 -37.62950611 1.12863445 C-36.47863203 1.04635789 -35.32775794 0.96408133 -34.14200889 0.87931154 C-22.75405454 0.11175824 -11.41045378 -0.01313191 0 0 Z " fill="#FE7161" transform="translate(1472.629506111145,340.8713655471802)"/>
<path d="M0 0 C2.46711234 -0.00043816 4.93422463 -0.00131642 7.40133667 -0.00259399 C12.74616414 -0.00436044 18.09097736 -0.00304745 23.43580258 0.00103939 C31.48638933 0.00717479 39.53696938 0.00740638 47.58755805 0.00657409 C61.08294079 0.00533563 74.57831866 0.00861035 88.07369995 0.01467896 C106.3212654 0.02286998 124.56882252 0.02478311 142.81639099 0.02565002 C186.67483111 0.03089674 230.53326984 0.0448579 274.39170837 0.05775452 C372.38108337 0.07837952 470.37045837 0.09900452 571.32920837 0.12025452 C571.32920837 375.66025452 571.32920837 751.20025452 571.32920837 1138.12025452 C422.86014587 1138.21306702 422.86014587 1138.21306702 271.39170837 1138.30775452 C240.15909363 1138.33506653 208.92647888 1138.36237854 176.74742126 1138.39051819 C138.55662537 1138.40406799 138.55662537 1138.40406799 120.66781616 1138.40658569 C107.37694924 1138.40955954 94.08612858 1138.42245769 80.79527459 1138.4402748 C67.2096449 1138.45823871 53.62404404 1138.46474047 40.03840294 1138.46058937 C32.67949241 1138.458639 25.32066128 1138.46118281 17.96176732 1138.47789991 C-38.036879 1138.60036508 -38.036879 1138.60036508 -65.67079163 1135.12025452 C-67.43130648 1134.91348307 -69.19195833 1134.70787241 -70.95278835 1134.5038023 C-74.78759966 1134.05463273 -78.60335221 1133.51312404 -82.42079163 1132.93275452 C-83.09438721 1132.83176453 -83.76798279 1132.73077454 -84.46199036 1132.62672424 C-132.57700887 1125.34923973 -180.19311842 1111.90401518 -224.67079163 1092.12025452 C-225.74683655 1091.64394592 -226.82288147 1091.16763733 -227.93153381 1090.67689514 C-269.68703708 1072.06807184 -308.3940092 1048.9790613 -344.67079163 1021.12025452 C-345.27085022 1020.6605426 -345.87090881 1020.20083069 -346.489151 1019.72718811 C-358.73477892 1010.31594899 -370.43359958 1000.31597994 -381.75672913 989.81556702 C-383.66747765 988.0482527 -385.58905524 986.29255937 -387.52235413 984.54994202 C-393.49390238 979.15784319 -399.28293719 973.61138705 -404.98329163 967.93275452 C-405.96990784 966.95302673 -405.96990784 966.95302673 -406.97645569 965.95350647 C-410.82995876 962.08783341 -414.49016432 958.10724149 -418.05628967 953.97547913 C-420.27959543 951.42067791 -422.60203636 948.96337745 -424.92079163 946.49525452 C-429.9611437 941.06131669 -434.5395641 935.33639581 -439.06532288 929.47181702 C-441.30665085 926.56896612 -443.62841277 923.7446801 -445.98329163 920.93275452 C-464.4841012 898.33884548 -480.30836083 873.50776959 -494.67079163 848.12025452 C-495.22299377 847.14749573 -495.77519592 846.17473694 -496.34413147 845.17250061 C-511.67922397 817.9591575 -524.21043785 789.53687142 -534.67079163 760.12025452 C-535.06460022 759.0211676 -535.45840881 757.92208069 -535.864151 756.78968811 C-548.77112768 720.45233292 -557.38364475 682.81580823 -562.48329163 644.62025452 C-562.63248047 643.51828735 -562.63248047 643.51828735 -562.78468323 642.39405823 C-566.009092 618.22663171 -567.0544251 594.04782117 -566.98329163 569.68275452 C-566.9805574 567.72308746 -566.9805574 567.72308746 -566.97776794 565.72383118 C-566.93719319 544.71722163 -566.27436102 523.96889022 -563.67079163 503.12025452 C-563.58593506 502.42786682 -563.50107849 501.73547913 -563.41365051 501.02210999 C-553.70986891 422.31040481 -528.37739574 345.56170916 -469.67079163 250.12025452 C-469.03222229 249.19430481 -469.03222229 249.19430481 -468.38075256 248.24964905 C-458.10854762 233.3981394 -447.29805654 218.9424623 -435.67079163 205.12025452 C-435.22413147 204.58867737 -434.77747131 204.05710022 -434.317276 203.50941467 C-423.9487783 191.20120817 -413.14024593 179.41080918 -401.67079163 168.12025452 C-398.75753817 165.21691008 -395.85800022 162.3003356 -392.96376038 159.37806702 C-391.59532343 158.00041057 -390.22683266 156.62280758 -388.85829163 155.24525452 C-388.18475647 154.56334045 -387.51122131 153.88142639 -386.817276 153.17884827 C-382.27095022 148.61076973 -377.5624273 144.31416753 -372.67079163 140.12025452 C-371.58787648 139.17074081 -370.50579687 138.22027304 -369.42469788 137.26869202 C-361.18654138 130.08289688 -352.6629399 123.34980593 -343.91249084 116.79994202 C-341.66048932 115.11253508 -339.41769826 113.4133501 -337.17469788 111.71400452 C-263.61821112 56.36673737 -176.29591755 20.46356327 -41.67079163 1.12025452 C-40.56680277 1.03788074 -39.46281391 0.95550696 -38.32537085 0.870637 C-25.5468331 0.00765515 -12.80348524 -0.0169278 0 0 Z " fill="#F24D1D" transform="translate(1476.6707916259766,340.87974548339844)"/>
<path d="M0 0 C2.51295625 -0.00087461 5.02591231 -0.00263027 7.53886741 -0.00517833 C12.95204886 -0.00868722 18.36517169 -0.00612241 23.77834702 0.00209808 C31.82722823 0.01428674 39.87608205 0.01475883 47.92497081 0.01301411 C61.47167238 0.01040042 75.01835428 0.01701506 88.56505013 0.02904892 C101.96114258 0.04091826 115.35722683 0.0485879 128.75332451 0.05075455 C130.00677695 0.05096077 130.00677695 0.05096077 131.28555167 0.05117115 C135.53001483 0.0518479 139.77447799 0.05245064 144.01894116 0.0530249 C174.01466242 0.05721604 204.010373 0.07066359 234.00608826 0.08963013 C263.13076216 0.10802453 292.25543314 0.12217922 321.38011169 0.13064575 C322.27923331 0.1309088 323.17835493 0.13117186 324.10472265 0.13144288 C333.13478569 0.13408012 342.16484875 0.13663172 351.19491183 0.1391206 C369.58712522 0.14419184 387.97933841 0.14983435 406.37155151 0.15582275 C407.6397761 0.15623462 407.6397761 0.15623462 408.93362139 0.15665481 C465.31023917 0.17502918 521.68685089 0.20675822 578.0634613 0.24050903 C578.1148792 57.15343597 578.16263273 114.06636518 578.19049072 170.97930908 C578.19111198 172.24526117 578.19111198 172.24526117 578.19174579 173.53678805 C578.20072706 191.88386326 578.20903724 210.23093872 578.21665729 228.57801455 C578.2203989 237.57700365 578.22428862 246.57599268 578.22825623 255.57498169 C578.2286485 256.47043118 578.22904078 257.36588068 578.22944494 258.288465 C578.24220118 287.24891122 578.26471419 316.20933974 578.29235297 345.16977527 C578.3207323 374.96069294 578.33913647 404.75160084 578.34520627 434.54253181 C578.34607058 438.76205945 578.34704749 442.98158705 578.34809303 447.20111465 C578.3482953 448.03147886 578.34849757 448.86184307 578.34870597 449.71736983 C578.35223434 463.01844109 578.36610277 476.31948189 578.38395741 489.62054078 C578.40173558 503.03225885 578.40833641 516.44394711 578.40396544 529.85567652 C578.40190166 537.10632526 578.40452422 544.3568926 578.42107773 551.60752487 C578.54549094 608.31367421 578.54549094 608.31367421 575.0634613 636.24050903 C574.90917707 637.48924797 574.75489283 638.7379869 574.59593332 640.02456641 C567.19130678 698.94909552 550.73931772 755.28981339 526.0634613 809.24050903 C525.67980408 810.08758423 525.29614685 810.93465942 524.90086365 811.80740356 C500.70169605 865.08400059 466.21078456 913.93083788 426.47410583 956.71658325 C424.99585363 958.31354592 423.52691493 959.91869161 422.05955505 961.52566528 C414.17070799 970.15172889 406.21047283 978.66624918 397.3134613 986.27175903 C394.97475403 988.31812789 392.70310379 990.42415293 390.43260193 992.54544067 C385.11671774 997.50863046 379.72444391 1002.29320723 374.0478363 1006.84597778 C371.83318588 1008.62291589 369.6385375 1010.41546705 367.4540863 1012.22879028 C345.74865784 1030.1866366 322.29032437 1045.89647118 298.0634613 1060.24050903 C297.2919574 1060.70102661 296.52045349 1061.16154419 295.72557068 1061.63601685 C225.5599022 1103.35228022 146.07495103 1127.82700887 65.0634613 1136.24050903 C63.40467957 1136.41839966 63.40467957 1136.41839966 61.71238708 1136.59988403 C26.43040053 1140.20918453 -10.69769299 1140.13886924 -45.9365387 1136.24050903 C-47.15679749 1136.11160278 -48.37705627 1135.98269653 -49.6342926 1135.84988403 C-129.53948213 1127.24057068 -206.30588147 1102.55251744 -349.9365387 1011.24050903 C-351.02613268 1010.32484716 -352.11599131 1009.40950013 -353.20606995 1008.49441528 C-359.17319541 1003.47499468 -365.10454265 998.41669829 -370.9365387 993.24050903 C-371.70224182 992.56761841 -372.46794495 991.89472778 -373.2568512 991.20144653 C-379.74015088 985.4498045 -385.85300224 979.40814968 -391.9365387 973.24050903 C-394.83997635 970.32734462 -397.75647474 967.42773903 -400.6787262 964.53347778 C-402.05638265 963.16504083 -403.43398564 961.79655006 -404.8115387 960.42800903 C-405.49345276 959.75447388 -406.17536682 959.08093872 -406.87794495 958.38699341 C-411.44602349 953.84066762 -415.74262568 949.1321447 -419.9365387 944.24050903 C-420.8860524 943.15759389 -421.83652017 942.07551428 -422.7881012 940.99441528 C-430.00233423 932.72274652 -436.74027138 924.1504836 -443.3296051 915.37527466 C-444.90170439 913.28678543 -446.48577893 911.2079482 -448.07325745 909.13113403 C-454.72892826 900.39344914 -460.98499289 891.47097765 -466.9365387 882.24050903 C-467.63214905 881.1680896 -467.63214905 881.1680896 -468.34181213 880.07400513 C-481.04733144 860.43858835 -492.38967571 840.10975271 -502.9365387 819.24050903 C-503.32905823 818.46626587 -503.72157776 817.69202271 -504.12599182 816.89431763 C-532.51900984 760.37117991 -549.26506005 697.83598734 -556.9365387 635.24050903 C-557.0201062 634.57132446 -557.10367371 633.90213989 -557.18977356 633.212677 C-562.38187165 591.22473982 -562.31545442 547.27771536 -557.1865387 505.28726196 C-556.92902001 503.17895348 -556.68067587 501.06967799 -556.43263245 498.9602356 C-545.82527141 410.17414705 -513.44503587 324.27192529 -442.9365387 222.24050903 C-442.48117737 221.64770142 -442.02581604 221.0548938 -441.55665588 220.44412231 C-432.14066486 208.18865278 -422.13620068 196.48122481 -411.62794495 185.15066528 C-409.8732243 183.25332584 -408.13037855 181.34491355 -406.40138245 179.42410278 C-400.84315479 173.26226669 -395.10658433 167.30654262 -389.2490387 161.42800903 C-388.54827209 160.72265015 -387.84750549 160.01729126 -387.12550354 159.29055786 C-383.12874061 155.30554735 -379.03027851 151.50060348 -374.75611877 147.81497192 C-372.3308891 145.71644701 -369.97965597 143.54161582 -367.6240387 141.36550903 C-362.2215635 136.44473601 -356.63416289 131.81350414 -350.9365387 127.24050903 C-349.80455083 126.31661454 -348.67306383 125.39210614 -347.54200745 124.46707153 C-275.3407887 65.69000361 -186.88083011 25.37642759 -71.4365387 4.92800903 C-70.59458954 4.80472229 -69.75264038 4.68143555 -68.88517761 4.55441284 C-45.95938169 1.23389883 -23.15242498 -0.06099751 0 0 Z " fill="#09CF83" transform="translate(1469.936538696289,2616.759490966797)"/>
<path d="M0 0 C0.70107754 -0.00044186 1.40215508 -0.00088371 2.12447739 -0.00133896 C24.11587019 -0.00859857 45.84894912 0.4368148 67.6875 3.25 C69.08281456 3.42358512 70.4781604 3.59691895 71.87353516 3.77001953 C134.47465234 11.64804116 195.44749948 29.71785385 251.92089844 57.87841797 C254.51203822 59.16301233 257.11552108 60.41663098 259.7265625 61.66015625 C297.0324287 79.58752044 331.95908375 103.81673599 363.6875 130.25 C364.54915771 130.9630127 364.54915771 130.9630127 365.42822266 131.69042969 C373.20061322 138.12725734 380.67884525 144.83343004 388.04931641 151.72509766 C389.70585787 153.26708841 391.37252748 154.79730451 393.04296875 156.32421875 C401.64464849 164.19173119 410.13412622 172.12742124 417.71875 181 C419.76511886 183.33870727 421.87114389 185.61035751 423.99243164 187.88085938 C428.95562142 193.19674356 433.7401982 198.5890174 438.29296875 204.265625 C440.06990685 206.48027542 441.86245802 208.67492381 443.67578125 210.859375 C505.78760445 285.92767545 546.84398755 379.17829041 565.9375 497.125 C566.08864258 498.2497876 566.23978516 499.3745752 566.39550781 500.53344727 C569.22962397 523.19198205 570.06822764 545.87027841 570 568.6875 C569.99784485 569.99593872 569.9956897 571.30437744 569.99346924 572.65246582 C569.94669845 593.66040395 569.33584325 614.40437682 566.6875 635.25 C566.54184601 636.41293579 566.54184601 636.41293579 566.39324951 637.59936523 C558.11722859 703.14453194 539.37124957 766.1166737 509.6875 825.25 C509.1601123 826.30203613 508.63272461 827.35407227 508.08935547 828.43798828 C488.31797167 867.65390703 463.725083 904.24619318 435.12304688 937.57177734 C433.61081776 939.33964519 432.10946278 941.11635317 430.609375 942.89453125 C425.74900002 948.63833383 420.87279424 954.23450006 415.46484375 959.4765625 C413.68882569 961.24867723 412.06315197 963.08976147 410.4375 965 C403.84127365 972.65283011 396.56070066 979.80728782 388.8671875 986.3515625 C386.55011178 988.36966071 384.30588603 990.45290606 382.06103516 992.55053711 C376.74409297 997.51563415 371.3500883 1002.30141039 365.671875 1006.85546875 C363.45722458 1008.63240685 361.26257619 1010.42495802 359.078125 1012.23828125 C335.89204847 1031.42253715 310.72697343 1048.19869722 284.6875 1063.25 C283.98625 1063.65847168 283.285 1064.06694336 282.5625 1064.48779297 C218.60372856 1101.56994999 147.37783155 1124.70598664 74.1875 1134.4375 C72.46575562 1134.6698938 72.46575562 1134.6698938 70.70922852 1134.90698242 C48.10673107 1137.76005655 25.48614553 1138.63140593 2.71999741 1138.56805801 C0.64948194 1138.56239604 -1.42102527 1138.5595892 -3.49154663 1138.55697632 C-24.56538628 1138.51836068 -45.39388142 1137.95609929 -66.3125 1135.25 C-67.00402161 1135.16278687 -67.69554321 1135.07557373 -68.40802002 1134.98571777 C-123.55734768 1128.0285958 -177.44498918 1113.75224998 -228.3125 1091.25 C-230.06699463 1090.47487061 -230.06699463 1090.47487061 -231.85693359 1089.68408203 C-287.35023298 1064.96205684 -338.82955968 1031.27590211 -383.3984375 989.9453125 C-385.30918602 988.17799818 -387.23076362 986.42230485 -389.1640625 984.6796875 C-395.13561076 979.28758867 -400.92464556 973.74113253 -406.625 968.0625 C-407.61161621 967.08277222 -407.61161621 967.08277222 -408.61816406 966.08325195 C-412.46782362 962.22143455 -416.12628768 958.24577257 -419.68920898 954.1184082 C-421.96323774 951.50100077 -424.32421097 948.97466465 -426.6875 946.4375 C-431.80174171 940.89356377 -436.61642315 935.15409662 -441.3125 929.25 C-441.71903809 928.74307617 -442.12557617 928.23615234 -442.54443359 927.71386719 C-465.07630619 899.60275563 -484.98508341 869.74990718 -501.88476562 837.92480469 C-503.24338976 835.37947534 -504.62608798 832.84886417 -506.015625 830.3203125 C-537.27998254 772.84990755 -556.03786223 708.00638201 -564.5625 643.3125 C-564.71364258 642.1670874 -564.86478516 641.0216748 -565.02050781 639.84155273 C-565.49840305 635.9819823 -565.92047981 632.11902339 -566.3125 628.25 C-566.39970306 627.40579498 -566.48690613 626.56158997 -566.57675171 625.69180298 C-568.36734718 607.81361397 -568.67602191 589.98930057 -568.63055801 572.04109955 C-568.62491637 569.77896554 -568.6220968 567.51683904 -568.61947632 565.25469971 C-568.58330268 543.77778937 -568.18007729 522.57337243 -565.3125 501.25 C-565.1431355 499.8994256 -564.97521035 498.54867006 -564.80859375 497.19775391 C-554.52772646 414.53048681 -525.76325284 333.16118514 -480.3125 263.25 C-479.87244629 262.5698584 -479.43239258 261.8897168 -478.97900391 261.18896484 C-476.1505476 256.83390217 -473.25463228 252.52895451 -470.3125 248.25 C-469.86084473 247.59112793 -469.40918945 246.93225586 -468.94384766 246.25341797 C-458.66413831 231.31488936 -447.65775668 216.96208811 -435.8359375 203.2109375 C-433.37796182 200.32681124 -430.99705016 197.39244304 -428.625 194.4375 C-425.43081705 190.50882578 -422.10195732 186.87910728 -418.4296875 183.39453125 C-416.58016941 181.5211264 -414.8753737 179.60403939 -413.16015625 177.609375 C-408.94347302 172.75402126 -404.43141875 168.22220428 -399.875 163.6875 C-399.06740234 162.87603516 -398.25980469 162.06457031 -397.42773438 161.22851562 C-393.11889585 156.92662124 -388.73592692 152.78154501 -384.11938477 148.81176758 C-381.51797818 146.5632609 -379.016072 144.21864189 -376.5 141.875 C-370.95606377 136.76075829 -365.21659662 131.94607685 -359.3125 127.25 C-358.80557617 126.84346191 -358.29865234 126.43692383 -357.77636719 126.01806641 C-342.821913 114.03163692 -327.42135067 102.63828715 -311.3125 92.25 C-310.26255859 91.56671631 -310.26255859 91.56671631 -309.19140625 90.86962891 C-296.20852536 82.43589016 -282.88700284 74.68980581 -269.3125 67.25 C-268.40580566 66.75000488 -267.49911133 66.25000977 -266.56494141 65.73486328 C-242.20826297 52.3833712 -216.50609494 41.44794702 -190.3125 32.25 C-189.26884277 31.88068359 -188.22518555 31.51136719 -187.14990234 31.13085938 C-141.71826939 15.16894494 -94.28307082 5.31882235 -46.3125 1.25 C-45.22155029 1.15428711 -44.13060059 1.05857422 -43.0065918 0.95996094 C-28.69857959 -0.11813923 -14.34049748 0.00414132 0 0 Z " fill="#19BBFD" transform="translate(2616.3125,1478.75)"/>
</svg>
